<svg id="Layer_1" data-name="Layer 1" xmlns="http://www.w3.org/2000/svg" viewBox="0 0 180 180"><defs><style>.cls-1{fill:#231f20;}</style></defs><title>icon</title><path class="cls-1" d="M135.16,101.37v33.79H112.42V67.58H78.63V33.79H33.79v67.58H0V180H180V101.37Zm-33.79,33.79H78.63V112.42h22.74ZM44.84,112.42H67.58v22.74H44.84Zm56.53-33.79v22.74H78.63V78.63ZM44.84,44.84H67.58V67.58H44.84Zm0,33.79H67.58v22.74H44.84ZM11.05,112.42H33.79v22.74H11.05ZM33.79,169H11.05V146.21H33.79Zm33.79,0H44.84V146.21H67.58Zm33.79,0H78.63V146.21h22.74Zm33.79,0H112.42V146.21h22.74ZM169,169H146.21V146.21H169Zm-22.74-33.79V112.42H169v22.74Z"/></svg>