<svg id="Layer_1" data-name="Layer 1" xmlns="http://www.w3.org/2000/svg" viewBox="0 0 1082.44 230.05"><title>logowordmark</title><path d="M170.53,85.27V127.9h-28.7V42.63H99.2V0H42.63V85.27H0v99.2H227.1V85.27ZM127.9,127.9H99.2V99.2h28.7ZM56.57,99.2h28.7v28.7H56.57ZM127.9,56.57v28.7H99.2V56.57ZM56.57,13.94h28.7V42.63H56.57Zm0,42.63h28.7v28.7H56.57ZM13.94,99.2H42.63v28.7H13.94Zm28.69,71.33H13.94V141.84H42.63Zm42.64,0H56.57V141.84h28.7Zm42.63,0H99.2V141.84h28.7Zm42.63,0h-28.7V141.84h28.7Zm42.63,0H184.47V141.84h28.69ZM184.47,127.9V99.2h28.69v28.7Z"/><path d="M360.05,186.84q-29.19,0-47.57-19T294.1,118.32q0-32.22,18.67-52.12t49.46-19.9q29.1,0,47,19t18,50.22q0,32-18.62,51.65T360.05,186.84Zm1.33-114.19q-16.11,0-25.59,12.08t-9.47,32q0,20.19,9.47,31.94t24.83,11.75q15.83,0,25.11-11.42t9.29-31.7q0-21.14-9-32.88T361.38,72.65Z"/><path d="M537,184.47H507.19V169.68h-.47q-11.09,17.16-29.66,17.16-33.74,0-33.74-40.85V87.43h29.85v55.91q0,20.57,16.3,20.56a16.14,16.14,0,0,0,12.89-5.63q4.83-5.64,4.83-15.31V87.43H537Z"/><path d="M621.65,114.44a26,26,0,0,0-12.6-2.94q-9.76,0-15.26,7.15t-5.49,19.48v46.34H558.35v-97H588.3v18h.37q7.11-19.71,25.59-19.71a19.23,19.23,0,0,1,7.39,1.14Z"/><path d="M631.94,179.63v-10.7q14.59,9.28,29.57,9.28,15.91,0,24.16-6.58t8.24-18.43q0-10.42-5.54-16.64t-24-16.91q-20.65-12-26.16-20.14A32.56,32.56,0,0,1,632.7,80.8q0-14.42,11.18-24.45T673.73,46.3A75.7,75.7,0,0,1,698,50.38v9.85a61.15,61.15,0,0,0-25.49-5.4q-13.85,0-21.94,7a22.55,22.55,0,0,0-8.1,17.82q0,10.43,5.54,16.58T671.93,113q19.05,10.8,25.35,19.19a31.22,31.22,0,0,1,6.3,19.28q0,15.63-10.85,25.49t-30.66,9.86a70.84,70.84,0,0,1-16.15-2.18Q636.77,182.47,631.94,179.63Z"/><path d="M764.84,186.84q-21.24,0-33.6-14t-12.37-36.34q0-24.17,12.94-37.81t34.07-13.65q20.75,0,32.79,13.55t12,37.53q0,22.65-12.27,36.67T764.84,186.84ZM765.5,93q-17.16,0-27.34,11.56T728,136.71q0,19,9.95,30.61t27.2,11.56q17.53,0,27-11.37T801.6,136q0-20.76-9.43-31.84T765.5,93Z"/><path d="M895.93,184.47V128q0-35-25.2-35a29.25,29.25,0,0,0-23,10.28q-9,10.29-9,25.45v55.72H830v-97h8.72v17.63h.38q10.6-20,33.16-20,15.74,0,24.07,10.47t8.34,29.9v59Z"/><path d="M1007.37,177.27q0,27.38-11.94,40.08t-37.14,12.7q-14,0-28.91-7.39v-9.1q15.36,8.53,29.1,8.53,40.17,0,40.18-42.46V167h-.38q-11.47,19.82-35,19.81-17.91,0-29.23-13t-11.33-36.2q0-23.2,12.23-37.9t32.21-14.69q21.42,0,31.09,17.72h.38V87.43h8.71Zm-8.71-52.6A31.72,31.72,0,0,0,990,102.4Q981.32,93,967.38,93q-16,0-25.77,12t-9.76,31.84q0,19.89,8.95,30.94t23.65,11q15.63,0,24.92-10.14t9.29-24.83Z"/><path d="M1026.43,180.2V169.68a36.24,36.24,0,0,0,11.94,6.73,37.33,37.33,0,0,0,12.13,2.47q22.83,0,22.84-18.67a14.35,14.35,0,0,0-5-11q-5-4.54-16.3-9.38-13.93-6.06-19.57-12.55a23.24,23.24,0,0,1-5.64-15.78,23.37,23.37,0,0,1,9-19.14q9-7.31,22.32-7.3,12.49,0,21.41,5.12V100a40.57,40.57,0,0,0-22.36-7q-9.57,0-15.45,5a16.11,16.11,0,0,0-5.87,12.93q0,6.91,3.69,11.23t16.3,9.9q15.16,6.83,20.85,12.65t5.69,15.5a24.19,24.19,0,0,1-8.68,19.09q-8.67,7.55-23.92,7.54Q1035.82,186.84,1026.43,180.2Z"/></svg>